{"title":"The American President (1995) Michael Douglas (DVDrip)","uid":4279254,"size":738352710,"categoryP":"video","categoryS":"movies","magnet":"?xt=urn:btih:020c7c43cb98f19d81895bd4f4bf4a85d781f791&amp;dn=The+American+President+%281995%29+Michael+Douglas+%28DVDrip%29&amp;tr=udp%3A%2F%2Ftracker.openbittorrent.com%3A80&amp;tr=udp%3A%2F%2Fopen.demonii.com%3A1337&amp;tr=udp%3A%2F%2Ftracker.coppersurfer.tk%3A6969&amp;tr=udp%3A%2F%2Fexodus.desync.com%3A6969","seeders":8,"leechers":3,"uploader":"Kuthumi","files":-1,"time":1215336369,"description":" &lt;a href=&quot;http://www.imdb.com/title/tt0112346/&quot; rel=&quot;nofollow&quot; target=&quot;_NEW&quot;&gt;http://www.imdb.com/title/tt0112346/&lt;/a&gt;\n\nWith Annette Bening, Martin Sheen and Michael J. Fox\n\nAlready a classic comedy-drama about the widowed US president and a lobbyist who fall in love. All rips seem to have vanished from the PirateBay where only a full DVD remains, so I found this good rip on the net and thought it should be represented here.\n\nNote: This is not my rip. As the MediaInfo analysis below shows, BVOP and QPEL have been used (B-frames and Quarter-pixel motion compensation), so the file may give problems in older standalone DivX players. Convert it with DrDivX or ConverXtoDVD if you have to.\n\nHowever, the file runs without problems in Windows Media Player on my computer, and in my new standalone DivX player.\n\nWidescreen 624x258, good stereo. \n\nFormat/Info                      : Audio Video Interleave\nFile size                        : 704 MiB\nDuration                         : 1h 49mn\nOveral bit rate                  : 902 Kbps\nWriting application              : VirtualDubMod 1.5.10.2 (build 2540/release)\nWriting library                  : VirtualDubMod build 2540/release\n\nVideo\nFormat                           : MPEG-4 Visual\nFormat profile                   : Streaming Video@L1\nFormat settings, BVOP            : Yes\nFormat settings, QPel            : Yes\nFormat settings, GMC             : No warppoints\nFormat settings, Matrix          : Custom\nMuxing mode                      : Packet Bitstream\nCodec ID                         : XVID\nCodec ID/Hint                    : XviD\nDuration                         : 1h 49mn\nBit rate                         : 766 Kbps\nWidth                            : 624 pixels\nHeight                           : 258 pixels\nDisplay aspect ratio             : 2.419\nFrame rate                       : 25.000 fps\nResolution                       : 8 bits\nColorimetry                      : 4:2:0\nScan type                        : Progressive\nBits/(Pixel*Frame)               : 0.190\nStream size                      : 598 MiB\nWriting library                  : XviD 1.1.2 (UTC 2006-11-01)\n\nAudio\nFormat                           : MPEG Audio\nFormat version                   : Version 1\nFormat profile                   : Layer 3\nCodec ID                         : 55\nCodec ID/Hint                    : MP3\nDuration                         : 1h 49mn\nBit rate mode                    : Variable\nBit rate                         : 123 Kbps\nNominal bit rate                 : 128 Kbps\nChannel(s)                       : 2 channels\nSampling rate                    : 48.0 KHz\nResolution                       : 16 bits\nStream size                      : 96.4 MiB\nWriting library                  : LAME3.90.\nEncoding settings                : ABR","torrent":{"xt":"urn:btih:020c7c43cb98f19d81895bd4f4bf4a85d781f791","amp;dn":"The+American+President+%281995%29+Michael+Douglas+%28DVDrip%29","amp;tr":["udp%3A%2F%2Ftracker.openbittorrent.com%3A80","udp%3A%2F%2Fopen.demonii.com%3A1337","udp%3A%2F%2Ftracker.coppersurfer.tk%3A6969","udp%3A%2F%2Fexodus.desync.com%3A6969"],"infoHash":"020c7c43cb98f19d81895bd4f4bf4a85d781f791","infoHashBuffer":{"type":"Buffer","data":[2,12,124,67,203,152,241,157,129,137,91,212,244,191,74,133,215,129,247,145]},"announce":[],"urlList":[]}}